<svg width="31" height="23" viewBox="0 0 31 23" fill="none" xmlns="http://www.w3.org/2000/svg">
<path d="M30.0188 0L29.0909 2.5H26.6817L22.3429 17.5H5.80826L0.0444336 3.75H21.0415L20.3371 6.25H3.80122L7.46934 15H20.4932L24.7795 0H30.0188ZM10.6604 18.75C9.62624 18.75 8.78696 19.59 8.78696 20.625C8.78696 21.6612 9.62624 22.5 10.6604 22.5C11.6945 22.5 12.5338 21.6612 12.5338 20.625C12.5338 19.59 11.6945 18.75 10.6604 18.75ZM19.278 10L16.905 18.75C15.8709 18.75 15.0316 19.5888 15.0316 20.625C15.0316 21.6612 15.8709 22.5 16.905 22.5C17.9391 22.5 18.7784 21.6612 18.7784 20.625C18.7784 19.59 17.9391 18.75 16.905 18.75L19.278 10Z" fill="#2F3035"/>
</svg>
