<svg width="31" height="30" viewBox="0 0 31 30" fill="none" xmlns="http://www.w3.org/2000/svg">
<path d="M15.363 0C8.73976 0 3.34814 5.39623 3.34814 12.0252C3.34814 12.7799 3.41727 13.5409 3.5618 14.283C3.56808 14.327 3.59322 14.4591 3.64349 14.6855C3.82572 15.4969 4.09593 16.2956 4.44783 17.0566C5.74232 20.1069 8.58895 24.7925 14.8352 29.8113C14.9923 29.9371 15.1808 30 15.3693 30C15.5578 30 15.7464 29.9371 15.9035 29.8113C22.1434 24.7925 24.9963 20.1069 26.2908 17.0566C26.6427 16.2956 26.9129 15.5031 27.0951 14.6855C27.1454 14.4591 27.1705 14.327 27.1768 14.283C27.3151 13.5409 27.3905 12.7799 27.3905 12.0252C27.3779 5.39623 21.9863 0 15.363 0ZM25.4927 13.9874C25.4927 14 25.4865 14.0126 25.4865 14.0252C25.4802 14.0566 25.4613 14.1509 25.4299 14.2956C25.4299 14.3019 25.4299 14.3019 25.4299 14.3082C25.2728 15.0126 25.0403 15.6981 24.7324 16.3585C24.7261 16.3648 24.7261 16.3774 24.7198 16.3836C23.5447 19.1698 20.9683 23.4214 15.363 28.0566C9.75776 23.4214 7.18135 19.1698 6.00625 16.3836C5.99997 16.3774 5.99997 16.3648 5.99368 16.3585C5.69205 15.7044 5.45955 15.0126 5.29616 14.3082C5.29616 14.3019 5.29616 14.3019 5.29616 14.2956C5.25846 14.1509 5.24589 14.0566 5.23961 14.0252C5.23961 14.0126 5.23333 14 5.23333 13.9811C5.10765 13.3333 5.04481 12.6792 5.04481 12.0189C5.04481 6.32704 9.67607 1.69182 15.363 1.69182C21.05 1.69182 25.6813 6.32704 25.6813 12.0189C25.6813 12.6855 25.6184 13.3459 25.4927 13.9874Z" fill="black"/>
<path d="M15.3631 4.52197C11.1591 4.52197 7.73438 7.94965 7.73438 12.1572C7.73438 16.3647 11.1591 19.7924 15.3631 19.7924C19.567 19.7924 22.9918 16.3647 22.9918 12.1572C22.9918 7.94965 19.567 4.52197 15.3631 4.52197ZM15.3631 18.0943C12.0891 18.0943 9.43104 15.4276 9.43104 12.1572C9.43104 8.88675 12.0954 6.22009 15.3631 6.22009C18.6307 6.22009 21.2951 8.88675 21.2951 12.1572C21.2951 15.4276 18.637 18.0943 15.3631 18.0943Z" fill="black"/>
</svg>
