<svg width="25" height="22" viewBox="0 0 25 22" fill="none" xmlns="http://www.w3.org/2000/svg">
<path d="M12.0933 8.22892C12.3271 7.10892 13.6389 1.99992 17.4707 1.99992C19.6888 1.99992 22.0847 3.55092 22.0847 7.00292C22.0847 10.9099 18.4608 15.4729 12.0933 19.6319C5.72571 15.4729 2.10181 10.9099 2.10181 7.00292C2.10181 3.51892 4.46878 1.99792 6.6749 1.99792C10.5945 1.99792 11.8155 7.12392 12.0933 8.22892ZM0.103516 7.00292C0.103516 11.0709 3.1609 16.4839 12.0933 21.9999C21.0256 16.4839 24.083 11.0709 24.083 7.00292C24.083 -0.959077 14.4433 -2.02508 12.0933 3.26592C9.75726 -1.99608 0.103516 -1.00408 0.103516 7.00292Z" fill="#2F3035"/>
</svg>
