<svg width="30" height="30" viewBox="0 0 30 30" fill="none" xmlns="http://www.w3.org/2000/svg">
<g clip-path="url(#clip0)">
<path d="M15.0046 7.29761C10.7509 7.29761 7.30713 10.7451 7.30713 14.9951C7.30713 19.2489 10.7546 22.6926 15.0046 22.6926C19.2584 22.6926 22.7021 19.2451 22.7021 14.9951C22.7021 10.7414 19.2546 7.29761 15.0046 7.29761ZM15.0046 19.9914C12.2434 19.9914 10.0084 17.7551 10.0084 14.9951C10.0084 12.2351 12.2446 9.99886 15.0046 9.99886C17.7646 9.99886 20.0009 12.2351 20.0009 14.9951C20.0021 17.7551 17.7659 19.9914 15.0046 19.9914Z" fill="#2F3035"/>
<path d="M21.1848 0.095454C18.4248 -0.033296 11.5885 -0.027046 8.82605 0.095454C6.39855 0.209204 4.2573 0.795454 2.53105 2.5217C-0.353954 5.4067 0.0147958 9.29421 0.0147958 14.9955C0.0147958 20.8305 -0.310204 24.628 2.53105 27.4692C5.4273 30.3642 9.37104 29.9855 15.0048 29.9855C20.7848 29.9855 22.7798 29.9892 24.8235 29.198C27.6023 28.1192 29.6998 25.6355 29.9048 21.1742C30.0348 18.413 30.0273 11.578 29.9048 8.81546C29.6573 3.5492 26.831 0.355454 21.1848 0.095454ZM25.5535 25.5605C23.6623 27.4517 21.0385 27.283 14.9685 27.283C8.71854 27.283 6.2123 27.3755 4.38355 25.5417C2.2773 23.4455 2.65855 20.0792 2.65855 14.9755C2.65855 8.0692 1.9498 3.09545 8.88105 2.74045C10.4735 2.6842 10.9423 2.66545 14.951 2.66545L15.0073 2.70295C21.6685 2.70295 26.8948 2.00545 27.2085 8.93545C27.2798 10.5167 27.296 10.9917 27.296 14.9942C27.2948 21.1717 27.4123 23.693 25.5535 25.5605Z" fill="#2F3035"/>
<path d="M23.0077 8.79257C24.0012 8.79257 24.8065 7.98724 24.8065 6.99382C24.8065 6.0004 24.0012 5.19507 23.0077 5.19507C22.0143 5.19507 21.209 6.0004 21.209 6.99382C21.209 7.98724 22.0143 8.79257 23.0077 8.79257Z" fill="#2F3035"/>
</g>
<defs>
<clipPath id="clip0">
<rect width="30" height="30" fill="white"/>
</clipPath>
</defs>
</svg>
