<svg width="81" height="76" viewBox="0 0 81 76" fill="none" xmlns="http://www.w3.org/2000/svg">
<path d="M1.43369 70C1.36702 70 1.33369 69.9667 1.33369 69.9L1.37369 56.16C1.37369 56.1067 1.40036 56.08 1.45369 56.08L5.19369 56.06C5.92703 56.0467 6.59369 56.22 7.19369 56.58C7.80702 56.94 8.29369 57.4267 8.65369 58.04C9.01369 58.64 9.19369 59.3067 9.19369 60.04V65.78C9.19369 66.5533 9.00703 67.26 8.63369 67.9C8.26036 68.5267 7.76036 69.0267 7.13369 69.4C6.50703 69.7733 5.80036 69.9667 5.01369 69.98L1.43369 70ZM3.77369 67.54H5.01369C5.50702 67.54 5.92036 67.3667 6.25369 67.02C6.60036 66.6733 6.77369 66.26 6.77369 65.78V60.02C6.77369 59.5933 6.61369 59.2267 6.29369 58.92C5.98703 58.6 5.62036 58.4467 5.19369 58.46L3.79369 58.48L3.77369 67.54ZM10.8473 70C10.794 70 10.7673 69.9667 10.7673 69.9L10.8073 56.16C10.8073 56.1067 10.834 56.08 10.8873 56.08H14.9273C15.6473 56.08 16.3073 56.26 16.9073 56.62C17.5206 56.9667 18.0073 57.44 18.3673 58.04C18.7273 58.6267 18.9073 59.2933 18.9073 60.04C18.9073 60.5333 18.834 60.98 18.6873 61.38C18.5406 61.7667 18.3673 62.1 18.1673 62.38C17.9673 62.6467 17.7873 62.8467 17.6273 62.98C18.3473 63.78 18.7073 64.72 18.7073 65.8L18.7273 69.9C18.7273 69.9667 18.694 70 18.6273 70H16.3673C16.314 70 16.2873 69.98 16.2873 69.94V65.8C16.2873 65.32 16.114 64.9067 15.7673 64.56C15.434 64.2 15.0206 64.02 14.5273 64.02H13.2073L13.1873 69.9C13.1873 69.9667 13.1606 70 13.1073 70H10.8473ZM13.2073 61.62H14.9273C15.3406 61.62 15.7073 61.4667 16.0273 61.16C16.3473 60.8533 16.5073 60.48 16.5073 60.04C16.5073 59.6133 16.3473 59.2467 16.0273 58.94C15.7206 58.6333 15.354 58.48 14.9273 58.48H13.2073V61.62ZM20.5157 70C20.4491 70 20.4157 69.9667 20.4157 69.9L20.4357 56.16C20.4357 56.1067 20.4624 56.08 20.5157 56.08H22.7557C22.8091 56.08 22.8357 56.1067 22.8357 56.16L22.8557 69.9C22.8557 69.9667 22.8291 70 22.7757 70H20.5157ZM26.8549 70C26.8016 70 26.7683 69.9667 26.7549 69.9L23.9949 56.16C23.9816 56.1067 24.0083 56.08 24.0749 56.08H26.3349C26.3883 56.08 26.4216 56.1067 26.4349 56.16L28.0749 65.32L29.6749 56.16C29.6883 56.1067 29.7216 56.08 29.7749 56.08H32.0149C32.0816 56.08 32.1083 56.1067 32.0949 56.16L29.3749 69.9C29.3616 69.9667 29.3283 70 29.2749 70H26.8549ZM33.3473 70C33.294 70 33.2673 69.9667 33.2673 69.9L33.2873 56.16C33.2873 56.1067 33.314 56.08 33.3673 56.08H39.7873C39.8406 56.08 39.8673 56.1133 39.8673 56.18V58.42C39.8673 58.4733 39.8406 58.5 39.7873 58.5H35.6873V61.62H39.7873C39.8406 61.62 39.8673 61.6467 39.8673 61.7L39.8873 63.96C39.8873 64.0133 39.8606 64.04 39.8073 64.04H35.6873V67.54H39.8073C39.8606 67.54 39.8873 67.5733 39.8873 67.64V69.92C39.8873 69.9733 39.8606 70 39.8073 70H33.3473ZM44.7145 70C44.6611 70 44.6345 69.9667 44.6345 69.9L44.6745 56.16C44.6745 56.1067 44.7011 56.08 44.7545 56.08H47.1945C47.2478 56.08 47.2945 56.1067 47.3345 56.16L49.1545 58.8L50.9745 56.16C51.0145 56.1067 51.0611 56.08 51.1145 56.08H53.5745C53.6278 56.08 53.6545 56.1067 53.6545 56.16L53.6945 69.9C53.6945 69.9667 53.6678 70 53.6145 70H51.3545C51.3011 70 51.2745 69.9667 51.2745 69.9L51.2545 59.7L49.1545 62.74L47.0745 59.7L47.0545 69.9C47.0545 69.9667 47.0278 70 46.9745 70H44.7145ZM59.0767 70.2C58.3567 70.2 57.6967 70.02 57.0967 69.66C56.51 69.2867 56.0367 68.8 55.6767 68.2C55.3167 67.5867 55.1367 66.9133 55.1367 66.18L55.1567 59.84C55.1567 59.1067 55.33 58.44 55.6767 57.84C56.0367 57.24 56.5167 56.76 57.1167 56.4C57.7167 56.04 58.37 55.86 59.0767 55.86C59.7967 55.86 60.45 56.04 61.0367 56.4C61.6233 56.76 62.09 57.24 62.4367 57.84C62.7967 58.44 62.9767 59.1067 62.9767 59.84L62.9967 66.18C62.9967 66.9133 62.8167 67.5867 62.4567 68.2C62.11 68.8 61.6367 69.2867 61.0367 69.66C60.45 70.02 59.7967 70.2 59.0767 70.2ZM59.0767 67.78C59.4767 67.78 59.8233 67.62 60.1167 67.3C60.4233 66.9667 60.5767 66.5933 60.5767 66.18L60.5567 59.84C60.5567 59.4 60.4167 59.0267 60.1367 58.72C59.8567 58.4133 59.5033 58.26 59.0767 58.26C58.6633 58.26 58.31 58.4133 58.0167 58.72C57.7233 59.0133 57.5767 59.3867 57.5767 59.84V66.18C57.5767 66.62 57.7233 67 58.0167 67.32C58.31 67.6267 58.6633 67.78 59.0767 67.78ZM66.2634 70C66.21 70 66.1834 69.9667 66.1834 69.9V58.5H63.5834C63.5167 58.5 63.4834 58.4667 63.4834 58.4L63.5034 56.16C63.5034 56.1067 63.53 56.08 63.5834 56.08H71.1834C71.25 56.08 71.2834 56.1067 71.2834 56.16V58.4C71.2834 58.4667 71.2567 58.5 71.2034 58.5H68.5834L68.6034 69.9C68.6034 69.9667 68.5767 70 68.5234 70H66.2634ZM75.522 70.2C74.802 70.2 74.142 70.02 73.542 69.66C72.9553 69.2867 72.482 68.8 72.122 68.2C71.762 67.5867 71.582 66.9133 71.582 66.18L71.602 59.84C71.602 59.1067 71.7753 58.44 72.122 57.84C72.482 57.24 72.962 56.76 73.562 56.4C74.162 56.04 74.8153 55.86 75.522 55.86C76.242 55.86 76.8953 56.04 77.482 56.4C78.0686 56.76 78.5353 57.24 78.882 57.84C79.242 58.44 79.422 59.1067 79.422 59.84L79.442 66.18C79.442 66.9133 79.262 67.5867 78.902 68.2C78.5553 68.8 78.082 69.2867 77.482 69.66C76.8953 70.02 76.242 70.2 75.522 70.2ZM75.522 67.78C75.922 67.78 76.2686 67.62 76.562 67.3C76.8686 66.9667 77.022 66.5933 77.022 66.18L77.002 59.84C77.002 59.4 76.862 59.0267 76.582 58.72C76.302 58.4133 75.9486 58.26 75.522 58.26C75.1086 58.26 74.7553 58.4133 74.462 58.72C74.1686 59.0133 74.022 59.3867 74.022 59.84V66.18C74.022 66.62 74.1686 67 74.462 67.32C74.7553 67.6267 75.1086 67.78 75.522 67.78Z" fill="#2F3035"/>
<path d="M59.5273 7.95599C58.8244 7.2526 57.7212 7.14888 56.8996 7.70921C53.8044 9.82072 38.2796 20.4384 36.6111 22.1082C34.1915 24.53 34.1915 28.4702 36.6111 30.8919C37.8209 32.1027 39.4101 32.7081 40.9992 32.7081C42.5882 32.7081 44.1774 32.1027 45.3873 30.8919C47.0557 29.222 57.6642 13.6839 59.774 10.5861C60.3337 9.76389 60.2301 8.65958 59.5273 7.95599ZM42.4617 27.964C41.6553 28.7713 40.3429 28.7713 39.5365 27.964C38.73 27.1569 38.7299 25.8438 39.5361 25.0366C40.1844 24.3954 44.5921 21.2492 50.0152 17.4763C46.2457 22.9041 43.1022 27.3154 42.4617 27.964Z" fill="#2F3035"/>
<path d="M24.0617 36.1294L21.508 37.3762C19.6395 34.0386 18.6595 30.3134 18.6595 26.5C18.6595 23.706 19.1743 21.03 20.1137 18.5621L23.0398 19.9668C23.3284 20.1053 23.633 20.171 23.933 20.171C24.7038 20.171 25.4439 19.7377 25.7995 18.9955C26.2935 17.9646 25.8591 16.7279 24.829 16.2334L21.9401 14.8465C25.5307 8.98547 31.7433 4.89919 38.9314 4.23565V7.34951C38.9314 8.49294 39.8575 9.41982 40.9999 9.41982C42.1424 9.41982 43.0685 8.49294 43.0685 7.34951V4.2341C45.5329 4.45863 47.9176 5.08676 50.1813 6.10949C51.2223 6.57997 52.4476 6.11632 52.9176 5.07444C53.3877 4.03224 52.9247 2.8061 51.8834 2.33562C48.4531 0.78589 44.7914 0 40.9998 0C33.9275 0 27.2784 2.75641 22.2774 7.7616C17.2766 12.7669 14.5225 19.4216 14.5225 26.5C14.5225 31.7306 16.0737 36.8178 19.0084 41.2111C19.4037 41.8027 20.0573 42.131 20.7293 42.131C21.0349 42.131 21.3443 42.0632 21.635 41.9212L25.8756 39.8509C26.9024 39.3496 27.3287 38.1102 26.8278 37.0825C26.3269 36.0549 25.0885 35.6283 24.0617 36.1294Z" fill="#2F3035"/>
<path d="M65.1429 15.6073C64.6729 14.5652 63.448 14.1015 62.4064 14.5721C61.3652 15.0426 60.9021 16.2688 61.3722 17.3109C62.6777 20.2049 63.3395 23.2966 63.3395 26.5C63.3395 30.3191 62.3563 34.0504 60.4823 37.3917L57.8163 36.1211C56.785 35.6296 55.5506 36.0678 55.0593 37.1002C54.5682 38.1325 55.0062 39.368 56.0376 39.8596L60.3816 41.9299C60.6674 42.066 60.9703 42.1311 61.2698 42.1311C61.9421 42.1311 62.5958 41.8024 62.9905 41.2113C65.9254 36.8179 67.4766 31.7307 67.4766 26.5C67.4766 22.7053 66.6914 19.0404 65.1429 15.6073Z" fill="#2F3035"/>
</svg>
