<svg width="30" height="18" viewBox="0 0 30 18" fill="none" xmlns="http://www.w3.org/2000/svg">
<path d="M24.8938 10.285C24.4088 9.6725 24.5475 9.4 24.8938 8.8525C24.9 8.84625 28.9037 3.31375 29.3162 1.4375L29.3188 1.43625C29.5238 0.7525 29.3188 0.25 28.3275 0.25H25.0475C24.2125 0.25 23.8275 0.68125 23.6213 1.16375C23.6213 1.16375 21.9513 5.16125 19.5887 7.7525C18.8263 8.50125 18.4738 8.74125 18.0575 8.74125C17.8525 8.74125 17.5338 8.50125 17.5338 7.8175V1.43625C17.5338 0.61625 17.3 0.25 16.6087 0.25H11.4513C10.9275 0.25 10.6163 0.6325 10.6163 0.98875C10.6163 1.76625 11.7975 1.945 11.92 4.1325V8.87875C11.92 9.91875 11.7312 10.11 11.3125 10.11C10.1975 10.11 7.49125 6.09625 5.8875 1.5025C5.56375 0.61125 5.2475 0.25125 4.40625 0.25125H1.125C0.18875 0.25125 0 0.6825 0 1.165C0 2.0175 1.115 6.25625 5.185 11.8562C7.8975 15.6788 11.7175 17.75 15.1925 17.75C17.2812 17.75 17.5363 17.29 17.5363 16.4988C17.5363 12.8463 17.3475 12.5012 18.3937 12.5012C18.8787 12.5012 19.7137 12.7413 21.6637 14.585C23.8925 16.7712 24.2588 17.75 25.5063 17.75H28.7862C29.7212 17.75 30.195 17.29 29.9225 16.3825C29.2987 14.4738 25.0838 10.5475 24.8938 10.285Z" fill="#2F3035"/>
</svg>
